<svg width="118" height="204" viewBox="0 0 118 204" fill="none" xmlns="http://www.w3.org/2000/svg">
<path d="M43.9271 132.608V133.046C43.0628 133.264 36.776 138.913 36.6114 139.45C36.0455 141.32 36.7554 145.059 36.6114 147.187C36.385 150.538 36.1587 154.019 35.6956 157.35C35.5824 157.161 34.0185 156.257 33.8641 155.799C33.3805 154.367 33.4937 134.329 33.8641 133.255C34.5844 131.156 39.8731 134.577 43.4641 131.266L43.9168 132.588L43.9271 132.608Z" fill="#1B8ECE"/>
<path d="M39.8113 162.223C38.2576 160.532 36.9303 159.359 35.6956 157.36C36.1586 154.028 36.3849 150.538 36.6113 147.196C37.3521 147.326 39.4512 146.918 39.8113 147.415C40.3155 148.101 39.4306 160.244 39.8113 162.223Z" fill="#2FA2DB"/>
<path d="M38.669 124.205C41.3751 123.976 42.6304 128.252 40.0375 129.068C35.7366 130.42 35.6543 124.453 38.669 124.205Z" fill="#A3D3EC"/>
<path d="M39.8113 162.223C39.4306 160.244 40.3155 148.101 39.8113 147.415C39.4409 146.918 37.3522 147.316 36.6113 147.196C36.7554 145.068 36.0454 141.329 36.6113 139.459C36.776 138.922 43.0628 133.264 43.9271 133.055C45.3058 132.707 46.8801 133.96 47.3534 133.94C52.7553 133.701 74.1983 134.387 77.0793 133.502C78.6947 133.005 79.1578 130.141 77.532 129.525C76.1533 128.998 49.2364 129.127 47.8061 129.525C46.9624 129.763 45.4087 132.727 43.9168 132.617L43.464 131.295C48.6807 126.482 42.8467 117.939 35.922 121.131C34.7078 121.688 32.5676 125.298 31.5799 123.12C31.4358 122.792 31.4461 116.606 31.5799 116.05C31.7033 115.552 37.2596 108.034 37.7535 107.875C38.556 107.617 53.8769 107.149 54.6691 107.438C55.5231 107.736 56.5932 111.246 60.6164 110.978C68.1379 110.461 67.397 98.0299 58.7849 99.4818C56.4183 99.8796 54.4736 103.668 53.7534 103.897C50.3785 104.971 38.4017 102.783 35.4589 103.897C34.8004 104.146 27.6082 114.498 27.4538 115.164C27.1966 116.298 27.495 123.876 27.9066 124.89C28.4622 126.233 32.4133 128.152 32.475 128.431C32.5779 128.878 29.4603 132.08 29.275 132.846C28.9561 134.159 28.9458 155.977 29.275 157.151C29.6969 158.652 38.1959 166.091 37.9592 169.522C28.8532 183.872 16.5677 197.059 0.464909 204C1.06169 202.667 -0.131875 195.995 0.0121761 195.607C0.10478 195.338 4.39544 193.856 5.27004 193.18C15.4873 185.324 12.1433 171.441 0.0121761 167.762V65.6601C22.8545 70.4037 31.8165 95.9614 16.9278 113.832C14.5098 116.736 4.8173 123.886 4.12791 126.651C3.83981 127.814 3.81923 147.266 4.12791 148.31C4.84816 150.707 23.6365 166.171 24.2539 168.199C25.0153 170.725 23.513 176.155 24.4802 179.029C28.1741 181.893 27.8345 166.797 27.4538 165.544C26.8262 163.446 9.40635 149.493 8.70667 146.977C8.47002 146.122 8.44944 130.151 8.70667 129.296C8.9639 128.441 20.4468 119.351 22.4224 116.925C38.5355 97.0851 30.2011 71.5473 7.56455 61.0159C6.15491 60.3596 0.578094 59.743 0.475201 58.1419C7.26616 44.3288 19.2841 35.1201 29.7381 24.1113C32.6397 21.0484 49.8229 0.154704 51.4692 0.00553472C57.2003 -0.501642 56.7579 34.0063 55.8112 38.2327C69.9694 41.962 89.7043 53.6171 93.3056 68.2855C95.3223 76.4898 92.8632 82.5858 97.4213 90.83C101.98 99.0741 112.042 104.166 118 111.157C112.814 119.301 109.172 130.36 100.848 136.128C84.9404 147.146 67.5925 133.055 53.7431 141.876C46.7772 146.311 44.565 156.823 41.1695 163.754C40.0068 164.599 39.9451 162.372 39.801 162.203L39.8113 162.223Z" fill="url(#paint0_linear_8_282)"/>
<path d="M3.91171 76.4697C22.1135 82.7746 22.0518 106.015 4.36445 113.156C3.55159 112.907 3.26349 99.7999 3.67506 99.233C4.18953 98.5269 11.8448 99.5015 12.3593 98.7954C12.74 98.2783 12.0712 90.8994 12.3593 89.5171L3.67506 88.632L3.90142 76.4797L3.91171 76.4697Z" fill="white"/>
<path d="M71.132 71.6173C80.0425 71.5874 82.3062 78.7874 82.1107 86.2061C74.4142 85.0624 67.2632 80.2691 64.5056 73.1686C64.6702 72.8106 70.4837 71.6272 71.132 71.6173Z" fill="white"/>
<path d="M43.927 133.045V132.607C45.419 132.717 46.9726 129.753 47.8164 129.515C49.2466 129.117 76.1532 128.987 77.5423 129.515C79.168 130.131 78.705 132.995 77.0895 133.492C74.2085 134.387 52.7758 133.691 47.3636 133.93C46.8903 133.95 45.3161 132.697 43.9373 133.045H43.927Z" fill="white"/>
<defs>
<linearGradient id="paint0_linear_8_282" x1="87.451" y1="67.649" x2="-19.374" y2="131.892" gradientUnits="userSpaceOnUse">
<stop stop-color="#0DACDE"/>
<stop offset="1" stop-color="#1D7FC3"/>
</linearGradient>
</defs>
</svg>
